<svg height="24" viewBox="0 0 24 24" width="24" xmlns="http://www.w3.org/2000/svg"><path d="m21.484 11.125-9.022-5c-.301-.167-.667-.167-.968-.001l-8.978 4.96c-.318.176-.515.51-.516.874s.195.698.513.875l9.022 5.04c.152.085.319.127.487.127s.335-.042.486-.126l8.978-5c.318-.177.514-.512.514-.875s-.197-.698-.516-.874zm-9.461 4.73-6.964-3.89 6.917-3.822 6.964 3.859z"/><path d="m12 22c.167 0 .335-.042.485-.126l9-5-.971-1.748-8.514 4.73-8.515-4.73-.971 1.748 9 5c.151.084.319.126.486.126zm8-20h-2v2h-2v2h2v2h2v-2h2v-2h-2z"/></svg>