<svg enable-background="new 0 0 76.00 76.00" height="76" viewBox="0 0 76 76" width="76" xmlns="http://www.w3.org/2000/svg"><path d="m52.7514 25.076c.6597.6774 1.2744 1.4173 1.8439 2.22.5696.8027 1.0611 1.6647 1.4745 2.5861s.7367 1.8945.9698 2.9193.3496 2.0869.3496 3.1864c0 1.0688-.1132 2.1639-.3397 3.2855-.2265 1.1215-.6004 2.2661-1.1215 3.4338-.5212 1.1677-1.215 2.3629-2.0815 3.5856-.8664 1.2227-1.9396 2.4674-3.2194 3.734-.4134.4091-.884.8753-1.4118 1.3986-.5278.5234-1.0875 1.0776-1.679 1.6625-.5916.585-1.1963 1.1864-1.8143 1.8044-.6179.6179-1.2237 1.215-1.8175 1.7911-1.3722 1.3591-2.8016 2.7753-4.2882 4.2486l-4.2618-4.308c1.469-1.4601 2.8896-2.8697 4.2618-4.2288.5806-.5761 1.1831-1.1699 1.8077-1.7812.6245-.6114 1.2325-1.2128 1.8241-1.8044.5915-.5915 1.1512-1.149 1.679-1.6724.5278-.5233.9984-.9895 1.4118-1.3986 1.6757-1.6801 2.9369-3.3481 3.7835-5.004s1.27-3.2667 1.27-4.8324c0-1.1831-.2408-2.3244-.7224-3.424-.4816-1.0995-1.2172-2.1375-2.2068-3.1139-.2463-.2463-.552-.4794-.917-.6993-.3651-.2199-.7774-.4123-1.237-.5772-.4596-.165-.961-.2991-1.5042-.4025-.5431-.1033-1.1182-.155-1.7251-.155-.6158 0-1.2601.0627-1.933.188-.6729.1254-1.3536.3321-2.0419.6202-.6883.288-1.3832.6652-2.0847 1.1314s-1.3887 1.0358-2.0616 1.7087l-4.4927 4.5191 7.0326 7.0524h-18.4986v-18.2083l6.9931 6.8677 4.5125-4.5389c1.0027-1.1259 2.0407-2.043 3.1138-2.7511 1.0732-.7081 2.1452-1.2578 3.2162-1.6493 1.0709-.3914 2.1364-.6553 3.1963-.7916 1.06-.1364 2.076-.2045 3.048-.2045 1.0071 0 1.978.089 2.9126.2671.9346.1782 1.8143.4289 2.6389.7521.8247.3233 1.5834.7048 2.2761 1.1446.6927.4399 1.3073.9193 1.8439 1.4382z" stroke-linejoin="round" stroke-width=".2"/></svg>