<svg fill="none" height="16" viewBox="0 0 16 16" width="16" xmlns="http://www.w3.org/2000/svg"><g fill="#212121"><path d="m6 1c-1.10457 0-2 .89543-2 2v2.20703c.32228-.09115.65659-.15366 1-.18461v-2.02242c0-.55228.44772-1 1-1h3v2.5c0 .82843.67157 1.5 1.5 1.5h2.5v7c0 .5523-.4477 1-1 1h-2.25716c-.31336.3794-.67663.7161-1.07976 1h3.33692c1.1046 0 2-.8954 2-2v-7.58579c0-.39782-.158-.77935-.4393-1.06066l-2.9143-2.91421c-.2813-.2813-.66279-.43934-1.06061-.43934zm6.7929 4h-2.2929c-.2761 0-.5-.22386-.5-.5v-2.29289z"/><path d="m10 10.5c0 2.4853-2.01472 4.5-4.5 4.5s-4.5-2.0147-4.5-4.5c0-2.48528 2.01472-4.5 4.5-4.5s4.5 2.01472 4.5 4.5zm-4-2c0-.27614-.22386-.5-.5-.5s-.5.22386-.5.5v1.5h-1.5c-.27614 0-.5.2239-.5.5s.22386.5.5.5h1.5v1.5c0 .2761.22386.5.5.5s.5-.2239.5-.5v-1.5h1.5c.27614 0 .5-.2239.5-.5s-.22386-.5-.5-.5h-1.5z"/></g></svg>