<svg enable-background="new 0 0 24 24" height="24" viewBox="0 0 24 24" width="24" xmlns="http://www.w3.org/2000/svg"><path d="m12 14c-.1 0-.3 0-.4-.1l-11-5c-.4-.2-.6-.5-.6-.9s.2-.7.6-.9l11-5c.3-.1.6-.1.8 0l11 5c.4.2.6.5.6.9s-.2.7-.6.9l-11 5c-.1.1-.3.1-.4.1zm-8.6-6 8.6 3.9 8.6-3.9-8.6-3.9z"/><path d="m12 22c-.1 0-.3 0-.4-.1l-11-5c-.4-.2-.6-.5-.6-.9s.2-.7.6-.9l4.4-2c.5-.2 1.1 0 1.3.5s0 1.1-.5 1.3l-2.4 1.1 8.6 3.9 8.6-3.9-2.4-1.1c-.5-.2-.7-.8-.5-1.3s.8-.7 1.3-.5l4.4 2c.4.2.6.5.6.9s-.2.7-.6.9l-11 5c-.1.1-.3.1-.4.1z"/><path d="m12 18c-.1 0-.3 0-.4-.1l-11-5c-.4-.2-.6-.5-.6-.9s.2-.7.6-.9l4.4-2c.5-.2 1.1 0 1.3.5s0 1.1-.5 1.3l-2.4 1.1 8.6 3.9 8.6-3.9-2.4-1.1c-.5-.2-.7-.8-.5-1.3s.8-.7 1.3-.5l4.4 2c.4.2.6.5.6.9s-.2.7-.6.9l-11 5c-.1.1-.3.1-.4.1z"/></svg>